<svg xmlns="http://www.w3.org/2000/svg" height="40" viewBox="0 -960 960 960" width="40"><path d="M480-80q-83 0-156-31.5T197-197q-54-54-85.5-127T80-480q0-83 31.5-156T197-763q54-54 127-85.5T480-880q83 0 156 31.5T763-763q54 54 85.5 127T880-480q0 83-31.5 156T763-197q-54 54-127 85.5T480-80Zm0-66.666q58.675 0 113.005-19.5 54.329-19.5 98.329-56.501L222.667-691.334q-36.334 44.667-56.167 98.78Q146.666-538.442 146.666-480q0 139.583 96.875 236.459Q340.417-146.666 480-146.666Zm256.667-122q35.667-44 56.167-98.329 20.5-54.33 20.5-113.005 0-139.583-96.875-236.459Q619.583-813.334 480-813.334q-58.442 0-112.554 19.834-54.113 19.833-98.78 56.833l468.001 468.001Z"/></svg>