<svg xmlns="http://www.w3.org/2000/svg" height="40" viewBox="0 -960 960 960" width="40"><path d="M448.667-280h66.666v-240h-66.666v240Zm31.321-316q15.012 0 25.179-9.966 10.166-9.967 10.166-24.7 0-15.3-10.155-25.65-10.155-10.35-25.166-10.35-15.012 0-25.179 10.35-10.166 10.35-10.166 25.65 0 14.733 10.155 24.7Q464.977-596 479.988-596Zm.189 516q-82.822 0-155.666-31.5t-127.178-85.833Q143-251.667 111.5-324.56 80-397.454 80-480.333q0-82.88 31.5-155.773Q143-709 197.333-763q54.334-54 127.227-85.5Q397.454-880 480.333-880q82.88 0 155.773 31.5Q709-817 763-763t85.5 127Q880-563 880-480.177q0 82.822-31.5 155.666T763-197.456q-54 54.21-127 85.833Q563-80 480.177-80Z"/></svg>