<svg xmlns="http://www.w3.org/2000/svg" height="40" viewBox="0 -960 960 960" width="40"><path d="M164.667-160v-66.666h123.334l-15.334-12.667q-60-49.333-86.334-109Q160-408 160-477.333 160-585 223.833-670.167q63.834-85.166 167.5-115.833v69.333q-74 28-119.333 93.834-45.334 65.833-45.334 145.5 0 57 21.334 102.167 21.333 45.167 60 79.833l23.334 17.334v-115.334H398V-160H164.667Zm404.667-13.333v-70q74.666-28 119.333-93.834 44.667-65.833 44.667-145.5 0-47-21.334-94.167-21.333-47.166-58.667-84.5l-22.667-20.667v115.334H564V-800h233.333v66.666h-124l15.333 14Q745-665.667 772.5-603.833 800-542 800-482.667 800-375 736.5-289.5T569.334-173.333Z"/></svg>